<svg width="230" height="230" viewBox="0 0 230 230" fill="none" xmlns="http://www.w3.org/2000/svg">
<path d="M196.032 33.9681L220.124 38.7838C221.418 39.0425 222.482 39.9913 222.856 41.2706C223.044 41.8921 223.061 42.5531 222.904 43.1834C222.747 43.8137 222.423 44.3896 221.964 44.85L202.227 64.6013C199.866 66.9583 196.666 68.2818 193.329 68.2813H176.956L135.844 109.408C136.628 112.37 136.772 115.464 136.267 118.486C135.761 121.508 134.618 124.387 132.912 126.932C131.207 129.477 128.979 131.63 126.376 133.246C123.773 134.862 120.856 135.905 117.819 136.306C114.781 136.706 111.694 136.455 108.761 135.569C105.828 134.682 103.118 133.181 100.811 131.165C98.5044 129.149 96.6535 126.665 95.382 123.877C94.1106 121.09 93.4477 118.064 93.4375 115C93.4397 111.692 94.2023 108.429 95.6666 105.463C97.1308 102.497 99.2574 99.9072 101.882 97.894C104.507 95.8807 107.559 94.4979 110.803 93.8523C114.047 93.2066 117.396 93.3156 120.592 94.1706L161.719 53.0294V36.685C161.719 33.35 163.041 30.1444 165.399 27.7869L185.15 8.03563C185.61 7.57748 186.186 7.25267 186.817 7.09574C187.447 6.9388 188.108 6.95561 188.729 7.14438C190.009 7.51813 190.957 8.58188 191.216 9.87563L196.032 33.9681Z" fill="white"/>
<path d="M28.75 115C28.7648 127.333 31.4244 139.52 36.5494 150.738C41.6744 161.956 49.1457 171.944 58.4592 180.029C67.7727 188.114 78.7118 194.107 90.5386 197.605C102.365 201.103 114.805 202.024 127.018 200.305C139.231 198.587 150.933 194.269 161.335 187.643C171.738 181.018 180.598 172.238 187.319 161.897C194.04 151.556 198.464 139.894 200.295 127.697C202.125 115.501 201.319 103.053 197.929 91.1949C197.454 89.8095 197.265 88.3417 197.374 86.881C197.484 85.4202 197.889 83.997 198.566 82.6981C199.244 81.3991 200.178 80.2515 201.313 79.3252C202.447 78.3988 203.759 77.7131 205.167 77.3098C206.575 76.9064 208.051 76.7939 209.504 76.9791C210.957 77.1642 212.357 77.6432 213.619 78.3867C214.882 79.1303 215.979 80.123 216.845 81.3043C217.712 82.4856 218.328 83.8308 218.658 85.2581C225.221 108.223 223.974 132.716 215.114 154.895C206.254 177.075 190.282 195.686 169.703 207.808C149.124 219.93 125.103 224.878 101.409 221.875C77.7149 218.872 55.6879 208.089 38.7837 191.216C21.898 174.316 11.1029 152.287 8.09318 128.587C5.08347 104.888 10.0296 80.8595 22.1551 60.2754C34.2805 39.6912 52.8986 23.7167 75.0863 14.86C97.274 6.0032 121.775 4.76572 144.742 11.3418C147.477 12.1412 149.784 13.9907 151.159 16.4859C152.534 18.9812 152.866 21.9194 152.081 24.6585C151.297 27.3975 149.46 29.7147 146.972 31.1035C144.485 32.4924 141.548 32.8401 138.805 32.0706C125.962 28.3858 112.439 27.7345 99.3013 30.1683C86.1638 32.602 73.7711 38.0541 63.1004 46.0948C52.4296 54.1355 43.7725 64.5449 37.8114 76.5025C31.8504 88.4601 28.7484 101.639 28.75 115Z" fill="white"/>
<path d="M71.875 115C71.8759 122.857 74.0219 130.565 78.0816 137.292C82.1413 144.019 87.9607 149.51 94.912 153.173C101.863 156.836 109.683 158.531 117.527 158.077C125.371 157.622 132.942 155.034 139.423 150.592C145.903 146.14 151.043 140 154.286 132.837C157.529 125.675 158.752 117.762 157.823 109.954C157.572 108.06 157.83 106.132 158.571 104.371C159.313 102.609 160.51 101.077 162.04 99.9318C163.57 98.7867 165.378 98.0702 167.277 97.856C169.176 97.6418 171.098 97.9376 172.845 98.7131C174.591 99.4784 176.104 100.693 177.227 102.234C178.351 103.774 179.046 105.585 179.242 107.482C180.804 120.823 178.174 134.32 171.717 146.099C165.26 157.878 155.296 167.354 143.209 173.213C131.121 179.072 117.51 181.023 104.263 178.795C91.0168 176.567 78.7924 170.27 69.287 160.779C59.7815 151.288 53.4664 139.074 51.2182 125.831C48.97 112.587 50.9001 98.973 56.7408 86.8767C62.5815 74.7804 72.0429 64.8023 83.8119 58.3274C95.5809 51.8526 109.074 49.202 122.417 50.7437C123.846 50.8763 125.234 51.2927 126.5 51.9687C127.766 52.6446 128.884 53.5664 129.789 54.6801C130.694 55.7937 131.367 57.0768 131.77 58.4541C132.172 59.8315 132.296 61.2753 132.133 62.701C131.971 64.1267 131.525 65.5055 130.822 66.7568C130.12 68.008 129.175 69.1064 128.042 69.9876C126.91 70.8688 125.613 71.5151 124.227 71.8886C122.842 72.262 121.396 72.3551 119.974 72.1624C113.931 71.4609 107.809 72.0455 102.008 73.8781C96.208 75.7106 90.8609 78.7495 86.3183 82.7953C81.7757 86.841 78.1403 91.802 75.6511 97.3523C73.1618 102.903 71.875 108.917 71.875 115Z" fill="white"/>
</svg>
